# xmcd CD database file
#
# Track frame offsets:
#	150
#	17558
#	37095
#	52528
#	65538
#	77790
#	91059
#	106494
#	122033
#	141818
#	155005
#	168770
#	180158
#	192430
#	207135
#	222435
#	234034
#	250612
#	278948
#
# Disc length: 4440 seconds
#
# Revision: 0
# Processed by: cddbd v1.5.1PL0 Copyright (c) Steve Scherf et al.
# Submitted via: CDex 1.51
#
DISCID=f5115613
DTITLE=Country Legends - Country Legends - Cd 2
DYEAR=1900
DGENRE=Country
TTITLE0=Kenny Rogers and Sheena Easton - We've Got Tonight
TTITLE1=Alison Krauss and Union Station - When You Say Nothing At All
TTITLE2=Don Mclean - Crazy
TTITLE3=Bobbie Gentry - I'll Never Fall In  Love Again
TTITLE4=Charlie Rich - The Most Beautifull Girl
TTITLE5=Dr. Hook - When You're In Love With A Beautifull Woman
TTITLE6=Billy Ray Cyrus - Achy Breaky Heart
TTITLE7=Juice Newton - Queen Of Hearts
TTITLE8=The Mavericks - Dance The Night Away
TTITLE9=Crystal Gayle - Talking In Your Sleep
TTITLE10=Willie Nwlson - Funny How Time Sleeps Away
TTITLE11=Eva Cassidy - Tennessee Waltz
TTITLE12=Merle Haggard - Okie From Muskogee
TTITLE13=Billie Joe Spears - (Hey Won't You Play) Another Somebody Done Somebody Wrong Song
TTITLE14=Nitty Gritty Dirt Band - Jambalaya (On The Bayou)
TTITLE15=Bobbie Gentry and Glen Campbell - All I Have To Do Is Dream
TTITLE16=Kenny Rogers and Kim Carnes - Don't Fall In Love With A Dreamer
TTITLE17=Johnny Cash - A Boy Named Sue
TTITLE18=Datatrack 19
EXTD=
EXTT0=
EXTT1=
EXTT2=
EXTT3=
EXTT4=
EXTT5=
EXTT6=
EXTT7=
EXTT8=
EXTT9=
EXTT10=
EXTT11=
EXTT12=
EXTT13=
EXTT14=
EXTT15=
EXTT16=
EXTT17=
EXTT18=
PLAYORDER=
